<?xml version="1.0" standalone="no"?>
<!DOCTYPE svg PUBLIC "-//W3C//DTD SVG 20010904//EN"
 "http://www.w3.org/TR/2001/REC-SVG-20010904/DTD/svg10.dtd">
<svg version="1.0" xmlns="http://www.w3.org/2000/svg"
 width="300.000000pt" height="105.000000pt" viewBox="0 0 300.000000 105.000000"
 preserveAspectRatio="xMidYMid meet">
<metadata>
Created by potrace 1.16, written by Peter Selinger 2001-2019
</metadata>
<g transform="translate(0.000000,105.000000) scale(0.100000,-0.100000)"
fill="#000000" stroke="none">
<path d="M429 980 c-40 -12 -72 -36 -91 -68 -17 -28 -16 -30 7 -65 17 -24 40
-41 75 -54 l49 -19 -28 -42 c-25 -39 -29 -41 -47 -27 -10 8 -24 15 -31 15 -14
0 -108 -119 -96 -122 4 -1 -41 -5 -102 -8 -60 -3 63 -6 275 -6 212 0 328 2
258 3 -107 3 -128 6 -128 19 0 8 -7 29 -16 47 -14 29 -11 28 25 -13 70 -80 55
-34 -18 53 l-70 85 35 6 c49 10 104 61 104 96 0 70 -114 127 -201 100z m71
-388 c-33 -2 -88 -2 -122 0 l-63 3 53 38 53 38 -16 -32 c-9 -17 -14 -33 -11
-37 8 -8 9 -6 51 78 l38 75 39 -80 39 -80 -61 -3z"/>
<path d="M1311 584 c-13 -64 -26 -124 -28 -135 -4 -13 0 -19 11 -19 9 0 16 7
16 16 0 14 1 14 16 0 8 -9 30 -16 47 -16 86 0 141 117 82 175 -28 29 -40 30
-78 10 l-28 -15 6 33 c4 17 9 40 11 50 4 12 0 17 -13 17 -16 0 -22 -19 -42
-116z"/>
<path d="M960 668 c-43 -30 -70 -82 -70 -136 0 -101 123 -138 190 -57 12 14
12 18 -1 25 -8 6 -15 5 -17 -1 -5 -13 -57 -39 -81 -39 -25 0 -61 45 -61 77 0
83 116 162 152 103 7 -11 18 -20 25 -20 24 0 23 20 -1 45 -33 33 -90 34 -136
3z"/>
<path d="M1735 678 c-3 -7 -14 -58 -25 -113 -12 -55 -24 -108 -26 -117 -4 -13
0 -18 14 -18 16 0 21 9 26 45 7 43 9 45 41 45 30 0 35 -4 51 -45 11 -31 22
-45 35 -45 23 0 23 4 0 54 l-17 38 33 33 c37 37 43 76 17 113 -13 19 -24 22
-80 22 -43 0 -66 -4 -69 -12z"/>
<path d="M2725 668 c-24 -105 -45 -210 -45 -223 0 -8 6 -15 14 -15 10 0 19 20
26 58 6 31 16 75 22 96 l10 40 51 -97 c34 -64 57 -96 67 -95 10 2 22 35 36
103 37 166 35 155 16 155 -15 0 -22 -18 -37 -96 -22 -110 -19 -111 -87 19 -41
78 -63 95 -73 55z"/>
<path d="M1564 616 c-43 -19 -64 -53 -64 -101 0 -58 22 -85 69 -85 44 0 99 36
82 53 -7 7 -16 6 -28 -5 -10 -8 -25 -18 -34 -21 -21 -7 -59 19 -59 41 0 13 11
18 51 19 27 2 59 8 70 13 27 15 25 64 -3 84 -27 19 -43 19 -84 2z"/>
<path d="M1973 615 c-37 -16 -73 -68 -73 -106 0 -44 35 -79 80 -79 41 0 88 29
76 48 -4 8 -17 5 -41 -9 -27 -16 -38 -18 -54 -9 -12 6 -21 15 -21 20 0 4 -2
14 -5 22 -4 10 9 13 51 15 63 2 94 22 94 59 0 24 -34 54 -60 54 -8 -1 -30 -7
-47 -15z"/>
<path d="M2345 616 c-42 -18 -65 -57 -65 -109 0 -54 22 -77 74 -77 30 0 45 7
72 34 29 29 34 41 34 79 0 37 -5 49 -26 66 -31 24 -47 25 -89 7z"/>
<path d="M2568 616 c-16 -8 -28 -11 -28 -5 0 5 -6 9 -14 9 -9 0 -20 -26 -31
-77 -9 -43 -19 -86 -21 -95 -4 -13 0 -18 14 -18 16 0 21 9 27 47 4 25 11 56
15 69 10 26 65 58 82 48 10 -7 7 -59 -8 -131 -5 -26 -3 -33 9 -33 17 0 40 85
41 148 0 50 -34 65 -86 38z"/>
<path d="M1125 598 c30 -131 34 -163 20 -185 -8 -12 -24 -24 -35 -28 -22 -7
-28 -35 -6 -35 28 0 67 44 120 133 63 107 74 137 52 137 -8 0 -24 -19 -34 -42
-10 -24 -28 -58 -40 -77 l-20 -33 -12 76 c-11 63 -16 76 -32 76 -14 0 -17 -5
-13 -22z"/>
<path d="M221 477 l-23 -93 75 -106 c51 -74 97 -127 148 -169 l73 -61 43 45
c36 39 42 50 37 76 -5 25 1 39 39 88 60 79 76 132 54 179 -9 19 -17 57 -17 84
0 28 -4 50 -10 50 -5 0 -10 -18 -10 -39 0 -35 -2 -39 -22 -34 -22 4 -22 4 3
-19 43 -37 59 -77 44 -112 l-12 -29 -53 101 c-28 56 -56 102 -62 102 -12 0
-13 3 52 -122 l54 -105 -43 -54 c-35 -44 -42 -59 -37 -82 5 -23 0 -37 -24 -64
-17 -18 -30 -28 -30 -21 0 7 -7 59 -14 116 -13 97 -12 142 3 142 4 0 14 -21
22 -47 8 -25 20 -48 26 -50 8 -3 3 23 -13 69 -23 69 -81 148 -108 148 -6 0 7
-17 27 -38 l38 -39 -12 -46 c-10 -36 -10 -65 -1 -135 17 -129 18 -128 -15
-103 -16 12 -41 32 -57 45 l-28 24 26 38 c26 39 27 56 2 35 -12 -10 -19 4 -47
93 -18 59 -36 106 -41 106 -12 0 -11 -8 27 -120 50 -150 39 -164 -41 -50 -64
91 -73 110 -53 110 5 0 7 5 4 10 -4 6 -11 8 -16 5 -11 -8 -12 -13 11 75 22 85
23 90 12 90 -4 0 -18 -42 -31 -93z"/>
</g>
</svg>
