<?xml version="1.0" standalone="no"?>
<!DOCTYPE svg PUBLIC "-//W3C//DTD SVG 20010904//EN"
 "http://www.w3.org/TR/2001/REC-SVG-20010904/DTD/svg10.dtd">
<svg version="1.0" xmlns="http://www.w3.org/2000/svg"
 width="142.000000pt" height="156.000000pt" viewBox="0 0 142.000000 156.000000"
 preserveAspectRatio="xMidYMid meet">
<metadata>
Created by potrace 1.16, written by Peter Selinger 2001-2019
</metadata>
<g transform="translate(0.000000,156.000000) scale(0.100000,-0.100000)"
fill="#000000" stroke="none">
<path d="M679 1459 c-65 -23 -131 -75 -148 -118 -10 -24 -10 -34 3 -59 27 -52
98 -102 178 -126 l39 -11 -42 -59 c-23 -32 -44 -54 -48 -49 -10 15 -60 43 -75
43 -8 0 -34 -23 -58 -51 -23 -29 -58 -68 -75 -87 -18 -19 -33 -39 -33 -43 0
-5 -74 -9 -165 -9 -158 0 -165 -1 -165 -20 0 -19 7 -20 149 -20 l149 0 -5 -22
c-3 -13 -9 -28 -14 -33 -4 -6 -11 -34 -15 -63 -4 -29 -11 -55 -15 -58 -5 -3
-9 -16 -9 -29 0 -13 -4 -27 -10 -30 -12 -7 -14 -52 -2 -57 4 -1 20 -21 37 -43
16 -22 33 -44 37 -50 46 -58 107 -137 123 -159 11 -15 27 -36 35 -45 21 -25
240 -191 252 -191 20 0 148 138 148 159 0 12 -4 21 -10 21 -28 0 -5 53 55 123
36 42 65 81 65 87 0 5 5 10 10 10 6 0 10 8 10 18 0 9 7 26 15 36 20 27 19 81
-2 119 -10 18 -21 34 -25 37 -3 3 -8 42 -10 88 l-3 82 143 0 c135 0 142 1 142
20 0 19 -7 20 -155 20 -88 0 -155 4 -155 9 0 5 -12 22 -27 38 -16 16 -64 68
-107 116 -43 48 -81 85 -83 83 -3 -3 40 -55 95 -118 56 -62 98 -115 96 -118
-3 -2 -26 19 -52 48 -33 37 -51 50 -60 44 -11 -7 -10 -17 7 -48 12 -21 21 -42
21 -45 0 -4 -56 -8 -125 -8 -69 -1 -125 0 -125 3 0 3 14 29 30 58 17 29 41 74
53 100 25 54 34 59 43 23 3 -14 10 -25 14 -25 5 0 11 -13 15 -30 4 -16 11 -30
16 -30 5 0 9 -7 9 -15 0 -8 4 -15 9 -15 5 0 12 -13 16 -30 4 -16 11 -30 16
-30 13 0 3 32 -23 77 -12 19 -32 57 -47 85 -14 29 -31 53 -38 55 -6 2 -26 -23
-43 -56 -18 -33 -37 -58 -41 -55 -5 3 -41 -16 -80 -41 -38 -26 -72 -45 -75
-43 -2 3 21 21 51 42 30 20 55 41 55 46 0 8 -50 40 -64 40 -10 0 -127 -143
-121 -148 3 -3 18 10 34 29 86 103 87 104 116 91 l27 -13 -36 -24 c-20 -14
-40 -25 -44 -25 -5 0 -25 -15 -46 -34 -32 -30 -81 -46 -74 -24 8 21 132 158
144 158 7 0 30 -9 50 -21 20 -11 40 -17 44 -12 5 4 28 35 53 68 47 62 47 74
-3 75 -59 1 -156 64 -185 121 -12 22 -11 30 5 56 82 136 315 151 429 28 23
-25 41 -53 41 -64 0 -47 -122 -141 -182 -141 -26 0 -55 -16 -47 -25 4 -3 36 4
73 16 89 29 166 98 166 149 0 72 -152 172 -259 169 -20 0 -61 -9 -92 -20z
m-92 -627 c-23 -25 -22 -52 3 -52 22 0 55 43 45 60 -4 7 55 10 184 10 l191 0
0 -55 0 -54 -30 6 c-51 10 -35 -29 21 -54 16 -7 29 -23 34 -40 3 -15 11 -31
17 -34 12 -7 14 -62 3 -79 -9 -15 -25 -12 -25 5 0 8 -4 15 -9 15 -5 0 -13 10
-16 23 -4 12 -17 36 -29 52 -12 17 -30 48 -41 70 -11 22 -23 42 -27 43 -5 2
-8 10 -8 18 0 8 -4 14 -10 14 -5 0 -10 7 -10 15 0 9 -9 15 -25 15 -16 0 -25
-6 -25 -15 0 -8 3 -15 8 -15 4 0 16 -20 27 -45 11 -25 23 -45 28 -45 4 0 7 -4
7 -10 0 -5 25 -50 55 -100 30 -50 55 -98 55 -107 0 -16 -48 -79 -100 -132 -30
-29 -40 -74 -20 -86 18 -11 10 -32 -30 -76 l-39 -44 -1 33 c0 17 -4 32 -9 32
-5 0 -12 50 -16 110 -4 61 -11 110 -16 110 -5 0 -9 11 -9 25 0 14 5 25 10 25
6 0 11 12 11 28 2 23 2 24 6 5 2 -13 8 -23 13 -23 5 0 12 -20 16 -45 3 -25 10
-45 15 -45 5 0 9 -7 9 -15 0 -8 9 -15 20 -15 11 0 20 5 20 11 0 19 -23 93 -32
104 -4 5 -8 16 -8 25 0 8 -7 28 -15 44 -8 15 -15 33 -15 38 0 13 -123 128
-137 128 -15 0 -18 -46 -4 -52 5 -1 28 -20 51 -42 37 -33 41 -41 32 -60 -32
-64 -36 -95 -24 -166 7 -39 12 -91 12 -115 0 -25 5 -45 10 -45 6 0 10 -21 10
-46 l0 -45 -62 48 c-109 83 -104 71 -58 137 22 32 38 62 35 67 -10 15 -33 10
-44 -8 -9 -16 -12 -16 -21 -3 -5 8 -10 25 -10 38 0 12 -4 22 -9 22 -5 0 -12
16 -16 36 -3 20 -11 45 -16 55 -5 11 -13 27 -18 37 -5 10 -12 33 -16 52 -9 41
-22 60 -43 60 -12 0 -13 -8 -8 -42 4 -23 11 -47 15 -53 5 -5 12 -26 16 -45 7
-34 11 -44 32 -85 6 -12 14 -36 18 -55 4 -19 12 -42 18 -51 6 -9 7 -24 3 -34
-6 -17 -7 -17 -24 1 -30 33 -82 102 -82 108 0 3 -8 14 -17 24 -10 10 -27 30
-38 46 -11 15 -28 37 -38 49 -17 21 -17 21 3 29 25 9 26 28 0 35 -15 4 -18 11
-13 37 3 17 9 36 13 41 4 6 10 24 13 40 3 17 11 51 18 78 l12 47 85 0 c82 0
84 -1 69 -18z m-226 -191 c-8 -39 -7 -43 12 -51 18 -7 18 -9 5 -9 -10 -1 -18
-7 -18 -14 0 -13 162 -232 202 -272 19 -20 19 -20 33 -1 14 19 11 59 -5 81 -4
6 -11 26 -15 45 -4 19 -10 40 -14 45 -4 6 -15 34 -25 63 -20 57 -17 84 3 30 7
-18 16 -40 21 -48 4 -9 11 -31 15 -50 4 -19 11 -41 15 -50 4 -8 13 -28 20 -45
l12 -30 19 24 c33 40 21 9 -18 -47 -35 -51 -35 -53 -17 -66 10 -8 55 -41 98
-75 46 -35 83 -57 86 -51 4 6 13 8 22 5 9 -4 31 12 60 43 38 41 45 54 41 78
-7 36 2 29 11 -8 5 -24 -2 -36 -50 -88 -31 -33 -63 -60 -71 -60 -8 0 -62 36
-121 81 -96 73 -119 97 -230 242 -70 92 -120 167 -118 176 20 76 31 111 34
103 1 -5 -2 -28 -7 -51z"/>
<path d="M723 1406 c-64 -29 -80 -117 -30 -164 79 -75 197 -31 197 72 0 79
-89 127 -167 92z m126 -25 c51 -44 34 -127 -32 -154 -75 -32 -166 43 -137 113
7 17 22 37 34 45 30 22 108 19 135 -4z"/>
<path d="M728 1373 c-66 -41 -31 -133 51 -133 64 1 101 51 75 102 -25 49 -76
61 -126 31z"/>
</g>
</svg>
